<svg width="200" height="200" viewBox="0 0 200 200" fill="none" xmlns="http://www.w3.org/2000/svg">
<path d="M100.036 165.914C159.164 165.914 200 118.128 200 103.2C200 88.1961 159.093 40.4854 100.036 40.4854C41.7143 40.4818 0 88.1925 0 103.196C0 118.125 41.6393 165.914 100.036 165.914ZM100.036 154.346C51.8857 154.346 12.8071 113.51 12.8071 103.192C12.8071 94.4853 51.8857 52.0425 100.036 52.0425C148.043 52.0425 187.193 94.4853 187.193 103.192C187.193 113.514 148.043 154.346 100.036 154.346ZM100.036 144.175C122.796 144.175 141.089 125.514 141.089 103.192C141.089 80.2889 122.796 62.2139 100.036 62.2139C77.1321 62.2139 58.7643 80.2853 58.9107 103.192C58.9821 125.514 77.1321 144.175 100.036 144.175ZM100.036 116.807C92.4286 116.807 86.2786 110.657 86.2786 103.192C86.2786 95.6568 92.425 89.5854 100.036 89.5854C107.571 89.5854 113.721 95.6568 113.721 103.192C113.721 110.657 107.575 116.807 100.036 116.807Z" fill="white"/>
</svg>
