<svg width="208" height="208" viewBox="0 0 208 208" fill="none" xmlns="http://www.w3.org/2000/svg">
<g filter="url(#filter0_d_48_1575)">
<path d="M78.9022 14L71.2072 75.0222H88.0969L107.473 17.545L78.9022 14ZM115.089 17.1372L95.5946 75.0222L154.669 75.0614L168.204 34.8231L115.089 17.1372ZM70.852 21.3096L42.4789 24.3841L48.043 75.0222H64.104L70.852 21.3096ZM25.0762 63.2577C20.5381 63.2577 17.5074 66.7086 16.6827 70.0027C16.2723 71.6497 16.5051 72.983 16.9708 73.7281C17.4325 74.4339 18.0717 75.0222 20.3408 75.0222H40.9004L39.5982 63.2577H25.0762ZM166.113 63.2577L162.167 75.0222H180.911C179.885 73.0614 179.451 70.983 179.727 68.9046C180.004 66.8655 180.793 65.0224 181.819 63.2577H166.113ZM16 82.0808V178.902C16 180.902 17.101 183.255 18.9083 185.059C20.7196 186.863 23.1031 187.961 25.0762 187.961L176.61 188C178.583 188 180.951 186.902 182.766 185.098C184.581 183.294 185.686 180.941 185.686 178.941V151.099H151.354C133.991 151.099 133.991 118.943 151.354 118.943H185.686V82.12L16 82.0808ZM151.354 126.001C143.462 126.001 143.462 144.04 151.354 144.04H160.154C156.603 142.55 154.117 139.06 154.117 135.021C154.117 130.982 156.603 127.492 160.154 126.001H151.354ZM167.81 126.001C171.361 127.492 173.848 130.982 173.848 135.021C173.848 139.06 171.361 142.55 167.81 144.04H192V126.001H167.81ZM163.982 132.276C162.404 132.276 161.22 133.452 161.22 135.021C161.22 136.589 162.404 137.766 163.982 137.766C165.561 137.766 166.744 136.589 166.744 135.021C166.744 133.452 165.561 132.276 163.982 132.276Z" fill="white"/>
</g>
<defs>
<filter id="filter0_d_48_1575" x="0" y="0" width="208" height="208" filterUnits="userSpaceOnUse" color-interpolation-filters="sRGB">
<feFlood flood-opacity="0" result="BackgroundImageFix"/>
<feColorMatrix in="SourceAlpha" type="matrix" values="0 0 0 0 0 0 0 0 0 0 0 0 0 0 0 0 0 0 127 0" result="hardAlpha"/>
<feOffset dy="4"/>
<feGaussianBlur stdDeviation="2"/>
<feComposite in2="hardAlpha" operator="out"/>
<feColorMatrix type="matrix" values="0 0 0 0 0 0 0 0 0 0 0 0 0 0 0 0 0 0 0.25 0"/>
<feBlend mode="normal" in2="BackgroundImageFix" result="effect1_dropShadow_48_1575"/>
<feBlend mode="normal" in="SourceGraphic" in2="effect1_dropShadow_48_1575" result="shape"/>
</filter>
</defs>
</svg>
