<svg width="75" height="78" viewBox="0 0 75 78" fill="none" xmlns="http://www.w3.org/2000/svg">
<path d="M57.4219 0H17.5781C7.86999 0 0 8.18479 0 18.2812V59.7188C0 69.8152 7.86999 78 17.5781 78H57.4219C67.13 78 75 69.8152 75 59.7188V18.2812C75 8.18479 67.13 0 57.4219 0Z" fill="url(#paint0_radial_77_440)"/>
<path d="M57.4219 0H17.5781C7.86999 0 0 8.18479 0 18.2812V59.7188C0 69.8152 7.86999 78 17.5781 78H57.4219C67.13 78 75 69.8152 75 59.7188V18.2812C75 8.18479 67.13 0 57.4219 0Z" fill="url(#paint1_radial_77_440)"/>
<path d="M37.5026 8.53125C29.5462 8.53125 28.5475 8.56751 25.4227 8.71528C22.3037 8.86397 20.1747 9.37737 18.312 10.1309C16.3849 10.909 14.7504 11.9501 13.1221 13.6442C11.4923 15.338 10.4912 17.0378 9.74063 19.0411C9.01406 20.979 8.51982 23.194 8.37949 26.4362C8.23975 29.6863 8.20312 30.7253 8.20312 39.0003C8.20312 47.2753 8.23828 48.3106 8.38008 51.5604C8.52363 54.8041 9.01729 57.0183 9.74121 58.9555C10.49 60.9597 11.4911 62.6596 13.12 64.3531C14.748 66.048 16.3825 67.0916 18.3082 67.8698C20.1724 68.6232 22.3017 69.1366 25.42 69.2853C28.5451 69.4331 29.543 69.4694 37.4991 69.4694C45.4564 69.4694 46.452 69.4331 49.5768 69.2853C52.6957 69.1366 54.827 68.6232 56.6912 67.8698C58.6175 67.0916 60.2496 66.048 61.8773 64.3531C63.5071 62.6596 64.5079 60.9597 65.2588 58.9564C65.9789 57.0183 66.4734 54.8035 66.6199 51.561C66.7603 48.3112 66.7969 47.2753 66.7969 39.0003C66.7969 30.7253 66.7603 29.6869 66.6199 26.4368C66.4734 23.1931 65.9789 20.9793 65.2588 19.0421C64.5079 17.0378 63.5071 15.338 61.8773 13.6442C60.2478 11.9495 58.6181 10.9084 56.6895 10.1312C54.8218 9.37737 52.6916 8.86366 49.5727 8.71528C46.4476 8.56751 45.4526 8.53125 37.4936 8.53125H37.5026ZM34.8744 14.022C35.6546 14.0208 36.525 14.022 37.5026 14.022C45.3252 14.022 46.2521 14.0513 49.3412 14.1972C52.1977 14.3331 53.748 14.8294 54.7808 15.2466C56.148 15.7987 57.1228 16.4589 58.1476 17.5256C59.173 18.592 59.8075 19.6076 60.3398 21.0295C60.7409 22.102 61.2188 23.7144 61.3488 26.6851C61.4892 29.8972 61.5196 30.8618 61.5196 38.9933C61.5196 47.1248 61.4892 48.0897 61.3488 51.3015C61.2182 54.2722 60.7409 55.8846 60.3398 56.9574C59.809 58.3793 59.173 59.3918 58.1476 60.4576C57.1222 61.524 56.1486 62.184 54.7808 62.7364C53.7492 63.1553 52.1977 63.6504 49.3412 63.7863C46.2527 63.9323 45.3252 63.964 37.5026 63.964C29.6798 63.964 28.7525 63.9323 25.6644 63.7863C22.8079 63.6492 21.2575 63.1529 20.2239 62.7358C18.8569 62.1834 17.8802 61.5234 16.8548 60.457C15.8294 59.3906 15.1948 58.3775 14.6625 56.9549C14.2614 55.8821 13.7836 54.2697 13.6535 51.299C13.5132 48.087 13.4851 47.1224 13.4851 38.9857C13.4851 30.849 13.5132 29.8895 13.6535 26.6775C13.7842 23.7068 14.2614 22.0944 14.6625 21.0204C15.1937 19.5984 15.8294 18.5829 16.8551 17.5165C17.8808 16.4501 18.8569 15.7898 20.2242 15.2365C21.2569 14.8176 22.8079 14.3224 25.6644 14.1859C28.367 14.0589 29.4144 14.0208 34.8744 14.0144V14.022ZM53.1413 19.0811C51.2004 19.0811 49.6257 20.7172 49.6257 22.7361C49.6257 24.7546 51.2004 26.3923 53.1413 26.3923C55.0822 26.3923 56.6569 24.7546 56.6569 22.7361C56.6569 20.7175 55.0822 19.0798 53.1413 19.0798V19.0811ZM37.5026 23.3531C29.194 23.3531 22.4575 30.3591 22.4575 39.0003C22.4575 47.6415 29.194 54.6442 37.5026 54.6442C45.8115 54.6442 52.5457 47.6415 52.5457 39.0003C52.5457 30.3594 45.8109 23.3531 37.5021 23.3531H37.5026ZM37.5026 28.8439C42.8959 28.8439 47.2685 33.3907 47.2685 39.0003C47.2685 44.6093 42.8959 49.1568 37.5026 49.1568C32.1094 49.1568 27.7371 44.6093 27.7371 39.0003C27.7371 33.3907 32.1091 28.8439 37.5026 28.8439Z" fill="white"/>
<defs>
<radialGradient id="paint0_radial_77_440" cx="0" cy="0" r="1" gradientUnits="userSpaceOnUse" gradientTransform="translate(19.9219 84.0075) rotate(-90) scale(77.3038 69.1333)">
<stop stop-color="#FFDD55"/>
<stop offset="0.1" stop-color="#FFDD55"/>
<stop offset="0.5" stop-color="#FF543E"/>
<stop offset="1" stop-color="#C837AB"/>
</radialGradient>
<radialGradient id="paint1_radial_77_440" cx="0" cy="0" r="1" gradientUnits="userSpaceOnUse" gradientTransform="translate(-12.5628 5.61874) rotate(79.1057) scale(34.505 137.159)">
<stop stop-color="#3771C8"/>
<stop offset="0.128" stop-color="#3771C8"/>
<stop offset="1" stop-color="#6600FF" stop-opacity="0"/>
</radialGradient>
</defs>
</svg>
