<svg width="208" height="208" viewBox="0 0 208 208" fill="none" xmlns="http://www.w3.org/2000/svg">
<g filter="url(#filter0_d_48_1581)">
<path d="M165.783 74.1837C166.687 73.7906 167.513 73.2404 168.225 72.5587L172.392 68.392C173.165 67.6183 173.779 66.6998 174.198 65.6889C174.616 64.678 174.832 63.5945 174.832 62.5003C174.832 61.4061 174.616 60.3227 174.198 59.3118C173.779 58.3009 173.165 57.3824 172.392 56.6087C171.618 55.835 170.699 55.2212 169.688 54.8025C168.678 54.3838 167.594 54.1683 166.5 54.1683C165.406 54.1683 164.322 54.3838 163.311 54.8025C162.3 55.2212 161.382 55.835 160.608 56.6087L156.442 60.7753L155.483 62.217C143.648 50.982 128.461 43.9286 112.242 42.1337L112.333 41.667V33.3337H120.667C125.25 33.3337 129 29.5837 129 25.0003C129 20.417 125.25 16.667 120.667 16.667H87.3332C82.7499 16.667 78.9999 20.417 78.9999 25.0003C78.9999 29.5837 82.7499 33.3337 87.3332 33.3337H95.6666V41.667L95.7666 42.142C76.7435 44.2926 59.263 53.6364 46.9065 68.2588C34.55 82.8813 28.2529 101.675 29.3054 120.791C30.358 139.906 38.6805 157.895 52.5677 171.073C66.455 184.25 84.8557 191.618 104 191.667C117.663 191.663 131.066 187.926 142.76 180.86C154.454 173.795 163.997 163.669 170.356 151.576C176.716 139.483 179.651 125.882 178.845 112.243C178.039 98.6036 173.523 85.4435 165.783 74.1837ZM104 175C71.8416 175 45.6666 148.834 45.6666 116.667C45.6666 84.5003 71.8416 58.3337 104 58.3337C136.158 58.3337 162.333 84.5003 162.333 116.667C162.333 148.834 136.158 175 104 175ZM112.333 108.334V91.667C112.333 87.0837 108.583 83.3337 104 83.3337C99.4166 83.3337 95.6666 87.0837 95.6666 91.667V116.667C95.6666 121.25 99.4166 125 104 125H129C133.583 125 137.333 121.25 137.333 116.667C137.333 112.084 133.583 108.334 129 108.334H112.333ZM104 66.667C76.3999 66.667 53.9999 89.067 53.9999 116.667C53.9999 144.267 76.3999 166.667 104 166.667C131.6 166.667 154 144.267 154 116.667C154 89.067 131.6 66.667 104 66.667ZM104 158.334C81.0249 158.334 62.3332 139.642 62.3332 116.667C62.3332 93.692 81.0249 75.0003 104 75.0003C126.975 75.0003 145.667 93.692 145.667 116.667C145.667 139.642 126.975 158.334 104 158.334Z" fill="white"/>
</g>
<defs>
<filter id="filter0_d_48_1581" x="0" y="0" width="208" height="208" filterUnits="userSpaceOnUse" color-interpolation-filters="sRGB">
<feFlood flood-opacity="0" result="BackgroundImageFix"/>
<feColorMatrix in="SourceAlpha" type="matrix" values="0 0 0 0 0 0 0 0 0 0 0 0 0 0 0 0 0 0 127 0" result="hardAlpha"/>
<feOffset dy="4"/>
<feGaussianBlur stdDeviation="2"/>
<feComposite in2="hardAlpha" operator="out"/>
<feColorMatrix type="matrix" values="0 0 0 0 0 0 0 0 0 0 0 0 0 0 0 0 0 0 0.25 0"/>
<feBlend mode="normal" in2="BackgroundImageFix" result="effect1_dropShadow_48_1581"/>
<feBlend mode="normal" in="SourceGraphic" in2="effect1_dropShadow_48_1581" result="shape"/>
</filter>
</defs>
</svg>
