<svg width="75" height="78" viewBox="0 0 75 78" fill="none" xmlns="http://www.w3.org/2000/svg">
<g clip-path="url(#clip0_77_444)">
<path d="M75 39C75 17.461 58.2105 0 37.5 0C16.7895 0 0 17.461 0 39C0 58.4659 13.7133 74.6006 31.6406 77.5262V50.2734H22.1191V39H31.6406V30.4078C31.6406 20.6334 37.2393 15.2344 45.8051 15.2344C49.9078 15.2344 54.1992 15.9961 54.1992 15.9961V25.5937H49.4707C44.8122 25.5937 43.3594 28.6001 43.3594 31.6845V39H53.7598L52.0972 50.2734H43.3594V77.5262C61.2867 74.6006 75 58.4662 75 39Z" fill="#1877F2"/>
<path d="M52.0972 50.2734L53.7598 39H43.3594V31.6845C43.3594 28.5998 44.8122 25.5938 49.4707 25.5938H54.1992V15.9961C54.1992 15.9961 49.9078 15.2344 45.8048 15.2344C37.2393 15.2344 31.6406 20.6334 31.6406 30.4078V39H22.1191V50.2734H31.6406V77.5262C33.579 77.8421 35.538 78.0005 37.5 78C39.462 78.0005 41.421 77.8421 43.3594 77.5262V50.2734H52.0972Z" fill="white"/>
</g>
<defs>
<clipPath id="clip0_77_444">
<rect width="75" height="78" fill="white"/>
</clipPath>
</defs>
</svg>
